<mxfile host="app.diagrams.net" agent="Mozilla/5.0 (Windows NT 10.0; Win64; x64; rv:136.0) Gecko/20100101 Firefox/136.0" version="26.1.0">
  <diagram name="Page-1" id="kAWZ4CCg6RIMupeTILh7">
    <mxGraphModel dx="1434" dy="746" grid="1" gridSize="10" guides="1" tooltips="1" connect="1" arrows="1" fold="1" page="1" pageScale="1" pageWidth="827" pageHeight="1169" math="0" shadow="0">
      <root>
        <mxCell id="0" />
        <mxCell id="1" parent="0" />
        <mxCell id="uHHD3D2DkFR1l18cXVaX-6" style="edgeStyle=orthogonalEdgeStyle;rounded=0;orthogonalLoop=1;jettySize=auto;html=1;exitX=0.5;exitY=1;exitDx=0;exitDy=0;entryX=0.5;entryY=0;entryDx=0;entryDy=0;" edge="1" parent="1" source="cpptwVNhRZnU73EYlG5G-1" target="uHHD3D2DkFR1l18cXVaX-5">
          <mxGeometry relative="1" as="geometry" />
        </mxCell>
        <mxCell id="cpptwVNhRZnU73EYlG5G-1" value="&lt;div&gt;Python Function App&lt;/div&gt;&lt;div&gt;&lt;span style=&quot;white-space: pre;&quot;&gt;(Database CRUD)&lt;/span&gt;&lt;/div&gt;" style="rounded=0;whiteSpace=wrap;html=1;" parent="1" vertex="1">
          <mxGeometry x="400" y="360" width="120" height="60" as="geometry" />
        </mxCell>
        <mxCell id="cpptwVNhRZnU73EYlG5G-3" value="&lt;div&gt;Cosmos DB&lt;/div&gt;" style="shape=cylinder3;whiteSpace=wrap;html=1;boundedLbl=1;backgroundOutline=1;size=15;" parent="1" vertex="1">
          <mxGeometry x="600" y="360" width="60" height="80" as="geometry" />
        </mxCell>
        <mxCell id="cpptwVNhRZnU73EYlG5G-4" value="" style="endArrow=classic;startArrow=classic;html=1;rounded=0;exitX=1.01;exitY=0.64;exitDx=0;exitDy=0;entryX=0;entryY=0.5;entryDx=0;entryDy=0;entryPerimeter=0;exitPerimeter=0;" parent="1" source="cpptwVNhRZnU73EYlG5G-1" target="cpptwVNhRZnU73EYlG5G-3" edge="1">
          <mxGeometry width="50" height="50" relative="1" as="geometry">
            <mxPoint x="510" y="550" as="sourcePoint" />
            <mxPoint x="560" y="500" as="targetPoint" />
          </mxGeometry>
        </mxCell>
        <mxCell id="uHHD3D2DkFR1l18cXVaX-4" style="edgeStyle=orthogonalEdgeStyle;rounded=0;orthogonalLoop=1;jettySize=auto;html=1;exitX=0.5;exitY=1;exitDx=0;exitDy=0;entryX=0.5;entryY=0;entryDx=0;entryDy=0;" edge="1" parent="1" source="uHHD3D2DkFR1l18cXVaX-1" target="cpptwVNhRZnU73EYlG5G-1">
          <mxGeometry relative="1" as="geometry" />
        </mxCell>
        <mxCell id="uHHD3D2DkFR1l18cXVaX-1" value="&lt;div&gt;Python Function App&lt;/div&gt;&lt;div&gt;(ARM query)&lt;/div&gt;" style="rounded=0;whiteSpace=wrap;html=1;" vertex="1" parent="1">
          <mxGeometry x="400" y="240" width="120" height="60" as="geometry" />
        </mxCell>
        <mxCell id="uHHD3D2DkFR1l18cXVaX-2" value="ARM" style="ellipse;shape=cloud;whiteSpace=wrap;html=1;" vertex="1" parent="1">
          <mxGeometry x="400" y="80" width="120" height="80" as="geometry" />
        </mxCell>
        <mxCell id="uHHD3D2DkFR1l18cXVaX-3" style="edgeStyle=orthogonalEdgeStyle;rounded=0;orthogonalLoop=1;jettySize=auto;html=1;exitX=0.5;exitY=0.9;exitDx=0;exitDy=0;entryX=0.5;entryY=0;entryDx=0;entryDy=0;exitPerimeter=0;" edge="1" parent="1" source="uHHD3D2DkFR1l18cXVaX-2" target="uHHD3D2DkFR1l18cXVaX-1">
          <mxGeometry relative="1" as="geometry" />
        </mxCell>
        <mxCell id="uHHD3D2DkFR1l18cXVaX-5" value="Visualisation" style="rounded=0;whiteSpace=wrap;html=1;" vertex="1" parent="1">
          <mxGeometry x="400" y="480" width="120" height="60" as="geometry" />
        </mxCell>
      </root>
    </mxGraphModel>
  </diagram>
</mxfile>
